<?xml version="1.0" encoding="utf-8"?>
<!-- Generator: Adobe Illustrator 18.0.0, SVG Export Plug-In . SVG Version: 6.00 Build 0)  -->
<!DOCTYPE svg PUBLIC "-//W3C//DTD SVG 1.1//EN" "http://www.w3.org/Graphics/SVG/1.1/DTD/svg11.dtd">
<svg version="1.1" id="Calque_1" xmlns="http://www.w3.org/2000/svg" xmlns:xlink="http://www.w3.org/1999/xlink" x="0px" y="0px"
	 viewBox="392.3 211.2 57.3 50" enable-background="new 392.3 211.2 57.3 50" xml:space="preserve">
<path d="M414.7,248.4c0-3.5,2.8-6.5,6.1-6.5c1.7,0,3.3,0.6,4.5,1.8c1.2,1.2,1.9,2.8,1.9,4.5v13.1h17.3l5.1-31.5l-28.7-18.5
	l-28.6,18.5l5,31.5h17.3V248.4z M410.4,248.4v8.5h-8.7l-5-25.1l24.3-15.1l24.4,15.1l-5.1,25.1h-8.7v-8.8c0-2.9-1.1-5.5-3.2-7.5
	c-2-2-4.7-3.1-7.6-3C415,237.6,410.4,242.5,410.4,248.4z"/>
</svg>
